<svg width="334" height="95" viewBox="0 0 334 95" fill="none" xmlns="http://www.w3.org/2000/svg">
<path d="M26.6082 71C20.9042 71 15.9211 70.1861 11.6587 68.5582C7.45908 66.8677 3.57284 64.2068 0 60.5754L11.7528 48.836C14.1973 51.1526 16.7673 52.9369 19.4626 54.1892C22.1579 55.3787 25.0412 55.9735 28.1126 55.9735C30.6825 55.9735 32.6256 55.5979 33.942 54.8466C35.2583 54.0326 35.9164 52.937 35.9164 51.5595C35.9164 50.1821 35.3523 49.0551 34.224 48.1786C33.0958 47.2394 31.5914 46.4255 29.711 45.7368C27.8932 44.9855 25.8561 44.2341 23.5995 43.4828C21.4057 42.7315 19.2118 41.8236 17.018 40.7593C14.8241 39.6949 12.787 38.4114 10.9066 36.9087C9.0888 35.3435 7.61578 33.4339 6.48752 31.1799C5.35926 28.8633 4.79512 26.0459 4.79512 22.7275C4.79512 18.4074 5.82937 14.6821 7.89785 11.5516C9.96634 8.42108 12.881 6.04189 16.6419 4.41402C20.4028 2.72354 24.8218 1.87831 29.899 1.87831C34.9135 1.87831 39.5519 2.69224 43.8143 4.32011C48.1393 5.88536 51.7121 8.13933 54.5328 11.082L42.686 22.8214C40.6175 20.8179 38.549 19.3466 36.4805 18.4074C34.4121 17.4056 32.1555 16.9048 29.711 16.9048C27.7678 16.9048 26.2008 17.2178 25.0099 17.8439C23.8816 18.47 23.3175 19.4092 23.3175 20.6614C23.3175 21.9762 23.8816 23.0719 25.0099 23.9484C26.1381 24.7623 27.6111 25.5137 29.4289 26.2024C31.3093 26.8911 33.3465 27.6111 35.5403 28.3624C37.7969 29.1138 40.022 30.0216 42.2159 31.086C44.4097 32.0877 46.4155 33.4026 48.2333 35.0304C50.1137 36.5957 51.6181 38.5679 52.7464 40.9471C53.8746 43.3263 54.4388 46.2064 54.4388 49.5873C54.4388 56.4118 51.9942 61.7024 47.105 65.459C42.2786 69.153 35.4463 71 26.6082 71Z" fill="#0066FF"/>
<path d="M90.5785 69.873V43.9524C90.5785 42.1367 90.0457 40.7593 88.9801 39.8201C87.9772 38.8183 86.6922 38.3175 85.1252 38.3175C84.0596 38.3175 83.088 38.5366 82.2105 38.9749C81.3956 39.4131 80.7375 40.0705 80.236 40.9471C79.7973 41.761 79.5779 42.7628 79.5779 43.9524L72.4322 40.7593C72.4322 37.0026 73.1844 33.7782 74.6887 31.086C76.2558 28.3937 78.3869 26.3276 81.0822 24.8876C83.8402 23.4475 87.037 22.7275 90.6725 22.7275C94.4334 22.7275 97.6928 23.4788 100.451 24.9815C103.209 26.4215 105.309 28.425 106.75 30.9921C108.255 33.4965 109.007 36.4078 109.007 39.7262V69.873H90.5785ZM61.1496 69.873V1.12698H79.5779V69.873H61.1496Z" fill="#0066FF"/>
<path d="M188.04 69.873V23.6667C188.04 19.3466 188.918 15.496 190.673 12.1151C192.428 8.67152 194.998 5.94797 198.383 3.94444C201.768 1.94092 205.873 0.939153 210.7 0.939153C215.526 0.939153 219.632 1.87831 223.017 3.75661C226.401 5.63492 228.971 7.9515 230.726 10.7063C232.481 13.4612 233.359 16.216 233.359 18.9709L218.692 21.8823C218.692 20.0666 218.127 18.6578 216.999 17.6561C215.934 16.6543 214.461 16.1534 212.58 16.1534C210.7 16.1534 209.195 16.6543 208.067 17.6561C207.001 18.6578 206.469 20.0666 206.469 21.8823V69.873H188.04ZM178.638 38.6931V23.6667H249.813V38.6931H178.638ZM218.692 69.873V21.8823C218.692 17.8752 219.569 14.2125 221.324 10.8942C223.079 7.57584 225.618 4.94621 228.94 3.00529C232.262 1.00176 236.274 0 240.975 0C244.485 0 247.588 0.563492 250.283 1.69048C253.041 2.81746 255.329 4.32011 257.147 6.19841L245.77 17.5622C245.331 17.0613 244.767 16.7169 244.077 16.5291C243.388 16.2787 242.667 16.1534 241.915 16.1534C240.473 16.1534 239.314 16.5917 238.436 17.4683C237.559 18.3448 237.12 19.5031 237.12 20.9431V69.873H218.692Z" fill="#0066FF"/>
<path d="M259.531 69.873V1.12698H277.959V69.873H259.531Z" fill="#0066FF"/>
<path d="M310.871 71C305.48 71 300.748 69.9982 296.673 67.9947C292.599 65.9286 289.402 63.0798 287.083 59.4484C284.826 55.7544 283.698 51.5282 283.698 46.7698C283.698 42.0741 284.795 37.9105 286.989 34.2791C289.246 30.6477 292.317 27.7989 296.203 25.7328C300.089 23.6041 304.477 22.5397 309.366 22.5397C314.193 22.5397 318.455 23.5414 322.153 25.545C325.851 27.4859 328.735 30.2094 330.803 33.7156C332.934 37.2218 334 41.2288 334 45.7368C334 46.6759 333.937 47.6777 333.812 48.7421C333.749 49.7438 333.561 50.9334 333.248 52.3109L291.502 52.5926V41.3228L326.384 41.041L317.828 46.0185C317.828 43.5141 317.515 41.4793 316.888 39.914C316.324 38.2862 315.446 37.0653 314.255 36.2513C313.064 35.4374 311.56 35.0304 309.742 35.0304C307.862 35.0304 306.232 35.5 304.853 36.4392C303.474 37.3783 302.409 38.7244 301.656 40.4775C300.967 42.2306 300.622 44.3593 300.622 46.8638C300.622 49.4308 300.998 51.5908 301.75 53.3439C302.565 55.0344 303.725 56.3179 305.229 57.1944C306.734 58.071 308.614 58.5093 310.871 58.5093C313.064 58.5093 314.976 58.1649 316.606 57.4762C318.298 56.7249 319.834 55.5666 321.213 54.0013L330.427 63.1111C328.108 65.7407 325.319 67.713 322.059 69.0278C318.8 70.3426 315.07 71 310.871 71Z" fill="#0066FF"/>
<path d="M168.723 53.6608V31.9359H174.607V17H150.877C157.472 27.8625 148.162 30.966 148.162 30.966C148.162 30.966 148.162 34.4575 148.162 37.3671C148.162 40.2767 159.218 69.5666 159.218 69.5666C168.529 69.5666 168.723 53.6608 168.723 53.6608Z" fill="#FF004D"/>
<path d="M118.678 53.6608C118.678 53.6608 118.872 69.5666 128.182 69.5666C128.182 69.5666 139.239 40.2767 139.239 37.3671C139.239 34.4575 139.239 30.966 139.239 30.966C139.239 30.966 129.928 27.8625 136.523 17H112.794V31.9359H118.678V53.6608Z" fill="#FF004D"/>
<path d="M162.516 78H158.636H156.89V84.886L143.7 84.983L130.51 84.886V78H128.764H124.885L89 84.0132L134.972 94.6816H143.7H152.429L198.401 84.0132L162.516 78Z" fill="#0066FF"/>
</svg>
