<svg width="25" height="25" viewBox="0 0 25 25" fill="none" xmlns="http://www.w3.org/2000/svg">
<path d="M1 12.5C1 14.0102 1.29746 15.5056 1.87539 16.9009C2.45331 18.2961 3.3004 19.5639 4.36827 20.6317C5.43615 21.6996 6.7039 22.5467 8.09914 23.1246C9.49438 23.7025 10.9898 24 12.5 24C14.0102 24 15.5056 23.7025 16.9009 23.1246C18.2961 22.5467 19.5639 21.6996 20.6317 20.6317C21.6996 19.5639 22.5467 18.2961 23.1246 16.9009C23.7025 15.5056 24 14.0102 24 12.5C24 10.9898 23.7025 9.49438 23.1246 8.09914C22.5467 6.7039 21.6996 5.43615 20.6317 4.36827C19.5639 3.3004 18.2961 2.45331 16.9009 1.87539C15.5056 1.29746 14.0102 1 12.5 1C10.9898 1 9.49438 1.29746 8.09914 1.87539C6.7039 2.45331 5.43615 3.3004 4.36827 4.36827C3.3004 5.43615 2.45331 6.7039 1.87539 8.09914C1.29746 9.49438 1 10.9898 1 12.5Z" stroke="#98AAC4" stroke-width="1.5" stroke-linecap="round" stroke-linejoin="round"/>
<path d="M8.66675 9.94445C8.66675 10.9611 9.07062 11.9361 9.7895 12.655C10.5084 13.3739 11.4834 13.7778 12.5001 13.7778C13.5167 13.7778 14.4918 13.3739 15.2107 12.655C15.9295 11.9361 16.3334 10.9611 16.3334 9.94445C16.3334 8.92779 15.9295 7.95277 15.2107 7.23388C14.4918 6.51499 13.5167 6.11112 12.5001 6.11112C11.4834 6.11112 10.5084 6.51499 9.7895 7.23388C9.07062 7.95277 8.66675 8.92779 8.66675 9.94445Z" stroke="#98AAC4" stroke-width="1.5" stroke-linecap="round" stroke-linejoin="round"/>
<path d="M5.04797 21.2515C5.36424 20.1989 6.01138 19.2763 6.8934 18.6205C7.77542 17.9648 8.84533 17.6108 9.94442 17.6111H15.0555C16.156 17.6107 17.2273 17.9656 18.1099 18.6228C18.9926 19.2801 19.6395 20.2047 19.9545 21.2592" stroke="#98AAC4" stroke-width="1.5" stroke-linecap="round" stroke-linejoin="round"/>
</svg>
