<svg width="25" height="25" viewBox="0 0 25 25" fill="none" xmlns="http://www.w3.org/2000/svg">
<path d="M3.5 6C3.5 7.32608 4.02678 8.59785 4.96447 9.53553C5.90215 10.4732 7.17392 11 8.5 11C9.82608 11 11.0979 10.4732 12.0355 9.53553C12.9732 8.59785 13.5 7.32608 13.5 6C13.5 4.67392 12.9732 3.40215 12.0355 2.46447C11.0979 1.52678 9.82608 1 8.5 1C7.17392 1 5.90215 1.52678 4.96447 2.46447C4.02678 3.40215 3.5 4.67392 3.5 6Z" stroke="#010E17" stroke-width="1.5" stroke-linecap="round" stroke-linejoin="round"/>
<path d="M1 23.5V21C1 19.6739 1.52678 18.4021 2.46447 17.4645C3.40215 16.5268 4.67392 16 6 16H11C12.3261 16 13.5979 16.5268 14.5355 17.4645C15.4732 18.4021 16 19.6739 16 21V23.5" stroke="#010E17" stroke-width="1.5" stroke-linecap="round" stroke-linejoin="round"/>
<path d="M17.25 1.16251C18.3255 1.43788 19.2788 2.06338 19.9595 2.94039C20.6403 3.81741 21.0098 4.89604 21.0098 6.00626C21.0098 7.11647 20.6403 8.19511 19.9595 9.07212C19.2788 9.94913 18.3255 10.5746 17.25 10.85" stroke="#010E17" stroke-width="1.5" stroke-linecap="round" stroke-linejoin="round"/>
<path d="M23.5 23.5V21C23.4937 19.8964 23.1224 18.826 22.4441 17.9555C21.7658 17.085 20.8185 16.4634 19.75 16.1875" stroke="#010E17" stroke-width="1.5" stroke-linecap="round" stroke-linejoin="round"/>
</svg>
